<?xml version="1.0" encoding="UTF-8"?>
<svg width="286.8" height="371.33" version="1.1" viewBox="0 0 286.79999 371.33334" xml:space="preserve" xmlns="http://www.w3.org/2000/svg"><g transform="matrix(1.3333 0 0 -1.3333 0 371.33)"><g transform="scale(.1)"><path d="m2087.2 2000.3-218.67 116.02v287.57c0 60.79-49.48 110.25-110.29 110.25h-75.52v160.59c0 60.79-49.46 110.25-110.26 110.25h-830.86c-19.355 0-37.578-7.54-51.246-21.23l-10.226-10.21h-58.926l-9.293 9.53c-13.582 13.92-32.496 21.91-51.953 21.91h-79.359c-81.598 0-147.98-66.4-147.98-148v-479.4l-282.23-162.7-1.9141-1.42c-50.77-37.37-48.953-85.58-48.203-105.7l0.125-4.36 0.48047-531.09 1.0586-666.05c0.0625-51.929 29.332-105.03 71.156-129.12l931.35-536.18c23.88-14.121 47.08-20.98 70.95-20.98 28.56 0 51.37 10.148 71.13 20.699l931.86 536.46c41.83 24.09 71.09 77.18 71.15 129.08l1.07 666.14 0.48 531.06c0.01 23.19 0.08 77.49-63.87 116.88" fill="#282828"/><path d="m2050.6 1937.7-1003.1 540.71c-4.19 2.27-9.27 2.21-13.42-0.17l-944.7-544.49c-9.2735-5.31-16.555-25.37-16.524-50.28l0.4727-531.02 203.75-115.07 0.422-230.51 173.89-100.11-0.442 242.54 218.62-125.85 0.324-261.37 175.53-101.05-0.328 261.36 222.01-129.96-0.01-3.981 3.49 1.949 4.13-2.418v4.731l231.53 129.68-0.32-261.36 175.52 101.05 0.33 261.37 218.61 125.85-0.43-242.54 173.89 100.11 0.42 230.51 203.75 115.07 0.47 531.02c0.04 25.27-4.98 39.87-27.9 54.23" fill="#5ebd0c"/><path d="m168.22 1333.2-65.008 36.71-0.457 508.22 65.465-37.69v-507.24m1815.1 0.09v507.23l65.3 37.57-0.46-508.18-64.84-36.62m-1779.1 555.77-66.582 38.07 267.39 154.11v-76.4l-200.81-115.78m1747.3 2.56-150.05 81.34v65.1l209.13-112.73-59.08-33.71m-1301.2 254.65v24.93c0-7.82 2.414-15.11 6.535-21.16l-6.535-3.77m402.45 295.37h-22.44l0.69 0.39h21.02l0.73-0.39" fill="#95e313"/><path d="m1144 831.49h-143.58l66.73-39.058-0.01-3.981 3.49 1.949 4.13-2.418v4.731l69.24 38.777" fill="#5ebd0c"/><path d="m277.65 1240.5 0.418-230.52 173.89-100.11-0.437 242.55 218.62-125.86 0.324-261.35 175.52-101.06-0.324 261.37 229.62-134.42 0.54-681.23c0.02-25.48-15.6-37.328-34.73-26.32l-931.83 536.47c-19.125 11.008-34.805 40.867-34.836 66.359l-0.5196 669.2 203.75-115.08" fill="#c9842f"/><path d="m1045.8 115.24-921.69 530.64c-7.906 4.57-19.863 23.051-19.883 40.562l-0.976 614.81 54.867-30.98 0.875-516.81c0.047-32.082 8.906-63.699 32.988-77.563l739.45-414.6c8.008-4.61 16.817-7.031 25.016-7.031 16.461 0 30.441 9.761 30.414 31.179l-0.848 519.84 58.83-34.437 0.93-588.84 0.02-66.774" fill="#e8cb4a"/><path d="m1876.1 1240.5-0.42-230.52-173.88-100.11 0.44 242.55-218.62-125.86-0.32-261.35-175.53-101.06 0.33 261.37-229.62-134.42-2.87-681.23c-0.04-25.48 15.59-37.328 34.71-26.32l931.84 536.47c19.13 11.008 34.8 40.867 34.83 66.359l2.86 669.2-203.75-115.08" fill="#c9842f"/><path d="m1105.6 115.33-0.1 66.641 0.93 588.88 53.91 31.558 2.53-518.94c-0.03-22.18 14.72-33.008 31.78-33.008 7.62 0 15.71 2.16 23.15 6.437l739.45 421.06c24.09 13.871 33.38 48.961 33.42 81.039l-2.55 508.42 59.92 33.83-0.98-614.85c-0.02-17.468-11.98-35.949-19.87-40.519l-921.59-530.55" fill="#e8cb4a"/><path d="m815.52 712.72-0.258 209.64c-0.024 10.692 5.726 20.629 14.984 25.942 4.488 2.597 9.625 3.98 14.848 3.98 5.285 0 10.508-1.422 15.101-4.09l184.91-108.25 1.83 102.65 0.19 223.09c0.01 16.46 13.41 29.86 29.86 29.86 7.98 0 15.49-3.13 21.13-8.77 5.64-5.65 8.75-13.15 8.74-21.13l-0.29-325.53 184.62 108.06c4.19 2.449 8.81 3.75 13.81 3.957l1.28 0.152c2.13 0 4.31-0.301 6.84-0.871 3.32-0.789 5.75-1.801 8-3.09 9.29-5.332 15.04-15.269 15.02-25.961l-0.26-209.64 115.76 66.652 0.31 244.13c0.01 10.64 5.75 20.53 14.96 25.83l218.6 125.86c4.51 2.6 9.67 3.99 14.9 3.99 5.24 0 10.42-1.39 14.97-4.01 9.21-5.34 14.91-15.26 14.89-25.92l-0.33-190.78 114.1 65.691 0.38 213.29 0.23 2.14c0.08 1.58 0.3 3.67 0.83 5.64 2.11 7.69 7.25 14.27 14.12 18.17l188.59 106.51 0.46 508.18-102.63-59.06c-1.4-0.81-2.88-1.37-4.38-1.89l-23.09-13.23c-4.56-2.58-9.68-3.96-14.82-3.96-16.5 0-29.93 13.42-29.93 29.94 0 10.72 5.78 20.68 15.1 25.97l121.76 69.47-969.42 522.56-903.54-520.76 181.82-103.95c8.777-5.04 14.226-14.43 14.226-24.54v-3.71c0-7.79-3.062-15.02-8.632-20.35-5.254-5.04-12.418-7.93-19.645-7.93-4.879 0-9.715 1.28-14.019 3.77l-7.407 4.22c-1.082 0.21-2.468 0.56-3.925 1.38l-177.35 102.11 0.457-508.22 188.58-106.51c6.887-3.9 12.031-10.5 14.137-18.12 0.699-2.58 1.051-5.21 1.051-7.86l0.386-213.26 114.09-65.691-0.34 190.78c-0.019 10.66 5.688 20.58 14.895 25.92 4.519 2.62 9.695 4.01 14.933 4.01 5.219 0 10.387-1.39 14.926-3.99l218.62-125.86c6.617-3.81 11.469-10 13.668-17.42 0.856-2.81 1.289-5.66 1.289-8.43l0.313-244.11 115.75-66.652m290.03-530.75 0.1-66.641 921.59 530.55c7.89 4.57 19.85 23.051 19.87 40.519l0.98 614.85-143.99-81.3-0.38-213.13c-0.01-10.629-5.75-20.519-14.97-25.808l-173.87-100.12c-4.54-2.602-9.69-3.981-14.91-3.981-5.24 0-10.42 1.379-14.96 4-9.21 5.34-14.91 15.25-14.89 25.918l0.33 190.78-158.8-91.42-0.31-244.14c0-2.653-0.34-5.281-1.05-7.813-2.08-7.656-7.03-14.066-13.94-18.039l-175.5-101.04c-4.54-2.609-9.68-4.012-14.9-4.012-2.61 0-5.2 0.332-7.69 1.012-2.52 0.68-4.97 1.692-7.26 3.02-9.21 5.332-14.94 15.242-14.92 25.879l0.27 209.23-169.87-99.437-0.93-588.88m-1001.3 504.47c0.02-17.511 11.977-35.992 19.883-40.562l921.69-530.64-0.02 66.774-0.93 588.84-169.86 99.437 0.266-209.23c0.015-10.637-5.7-20.547-14.91-25.879-2.27-1.309-4.715-2.34-7.247-3.02-2.5-0.68-5.082-1.012-7.707-1.012-5.222 0-10.363 1.403-14.906 4.012l-175.52 101.06c-9.211 5.293-14.949 15.191-14.957 25.832l-0.313 244.14-158.81 91.42 0.34-190.78c0.023-10.668-5.684-20.578-14.891-25.918-4.555-2.621-9.719-4-14.969-4-5.219 0-10.371 1.379-14.89 3.981l-173.89 100.12c-9.211 5.289-14.949 15.179-14.957 25.808l-0.387 213.13-143.98 81.3 0.976-614.81m971.08-643.78c-16.01 0-32.12 4.9101-49.25 15.039l-931.76 536.44c-28.344 16.308-49.742 55.949-49.785 92.199l-1.0625 666.07-0.4805 531.05-0.1445 5.46c-0.6484 17.29-1.7187 46.24 30.84 70.22l945.47 544.99c6.7 3.83 14.24 5.85 21.82 5.85 7.2 0 14.39-1.84 20.77-5.31l1003-540.68c43.67-26.89 43.61-59.18 43.58-80.55l-0.48-531.01-1.06-666.11c-0.04-36.23-21.45-75.871-49.78-92.179l-931.85-536.46c-14.7-7.8594-30.73-15.02-49.84-15.02" fill="#282828"/><path d="m1037.4 2459.6 0.03-0.01-0.03 0.01" fill="#333"/><path d="m1767 1825.3h-742.4l-31.445-31.44h-119.49l-30.684 31.44h-154.85c-20.758 0-37.735-16.97-37.735-37.73v-232.7c0-20.76 16.977-37.74 37.735-37.74h154.09l31.445-32.23h119.49l32.235 32.23h741.61c20.75 0 37.74 16.98 37.74 37.74v232.7c0 20.76-16.99 37.73-37.74 37.73" fill="#4f6fd2"/><path d="m1758.2 2441.6h-733.65l-31.445-31.45h-119.49l-30.684 31.45h-154.85c-20.758 0-37.735-16.99-37.735-37.74v-232.7c0-20.75 16.977-37.73 37.735-37.73h154.09l31.445-32.24h119.49l32.235 32.24h732.86c20.75 0 37.74 16.98 37.74 37.73v232.7c0 20.75-16.99 37.74-37.74 37.74" fill="#d648df"/><path d="m687.49 2133.5h-21.758l0.079 7.34c6.257-4.61 13.968-7.33 22.289-7.33h17.765v-0.01l-17.765 0.01c-0.204 0-0.407-0.01-0.61-0.01" fill="#95e313"/><path d="m705.87 2133.5h-17.765c-8.321 0-16.032 2.72-22.289 7.33l2.515 226.57c0 32.56-0.199 49.13 32.067 49.13l151.25-4.67c5.699 0 11.148-2.31 15.129-6.44l24.164-25h100.73l24.97 25.19c3.96 4 9.34 6.25 14.94 6.25l720.27-0.07c5.41 0 10.54-0.98 15.51-2.38v-52.11c-2.28 8.52-10.08 18.37-17.63 18.37l-694.71 0.07-37.03-32.17c-3.96-4-9.34-6.25-14.94-6.25h-145.48c-5.7 0-11.141 2.31-15.125 6.44l-29.782 29.55h-90.531c-8.957 0-16.25-7.35-16.25-16.39l-8e-3 -223.43" fill="#ee72f2"/><path d="m1632.9 2247.2h-376.75c-11.74 0-21.33 9.6-21.33 21.33v24.54c0 11.73 9.59 21.32 21.33 21.32h376.75c11.73 0 21.33-9.59 21.33-21.32v-24.54c0-11.73-9.6-21.33-21.33-21.33" fill="#f8f8f8"/><path d="m1644.2 1634.6h-406.65c-5.51 0-10 4.5-10 10v47.2c0 5.5 4.49 10 10 10h406.65c5.5 0 10-4.5 10-10v-47.2c0-5.5-4.5-10-10-10" fill="#f8f8f8"/><path d="m1763.8 2133.5h-739.22l-31.445-31.45h-119.49l-30.684 31.45h-154.85c-20.758 0-37.735-16.99-37.735-37.74v-232.7c0-20.76 16.977-37.74 37.735-37.74h154.09l31.445-32.23h119.49l32.235 32.23h738.43c20.76 0 37.73 16.98 37.73 37.74v232.7c0 20.75-16.97 37.74-37.73 37.74" fill="#2ba7e6"/><path d="m842.19 2442 31.445-32.23h119.49l32.235 32.23h547.06c20.75 0 37.74 16.99 37.74 37.74v194.96c0 20.76-16.99 37.73-37.74 37.73h-830.86l-31.446-31.44h-119.5l-30.675 31.44h-79.379c-41.512 0-75.477-33.95-75.477-75.46v-1295.9c0-41.51 33.965-75.48 75.477-75.48l1091.9 1.19c20.75 0 37.74 16.98 37.74 37.73v173.64c0 20.75-16.99 37.73-37.74 37.73h-547.85l-31.445-31.44h-119.49l-30.684 31.44h-192.58v926.09h191.82" fill="#e0a815"/><path d="m1576 1929.9h-157.81c-36.19 0-58.45 16.39-58.45 36.44v3.89c0 20.04 22.26 36.45 58.45 36.45h157.81c36.19 0 58.52-16.41 58.52-36.45v-3.89c0-20.05-22.33-36.44-58.52-36.44" fill="#f8f8f8"/><path d="m1610.2 1433.7v44.47c0 10.19-4.1 19.48-10.73 26.28 18.96-10.33 32.67-30.04 33.06-51.91l-22.33-18.84m-617.04 50.76h-10.605l0.398 0.39h10.207l27.205 27.21h0.4l-27.605-27.6" fill="#95e313"/><path d="m993.12 1484.9h-10.207l21.082 20.96c4.03 4 9.48 6.25 15.17 6.25h1.16l-27.205-27.21" fill="#7dafec"/><path d="m998.66 1405.1h-136.66c-5.781 0-11.324 2.32-15.355 6.44l-24.536 25.02h-179.36c-11.848 0-21.457 9.54-21.457 21.33v54.87h42.914v-0.63h172.27c5.782 0 11.321-2.31 15.356-6.44l24.535-25.01h102.28l3.872 3.85h10.605l27.605 27.6h549.53c10.32 0 20.32-2.78 29.17-7.61 6.63-6.8 10.73-16.09 10.73-26.28v-44.47l-13.88-11.71s-1.35 13.33-15.05 14.5h-542.05l-25.35-25.21c-4.02-4-9.48-6.25-15.17-6.25" fill="#f2da21"/><path d="m472.33 1266.1h-30.664c-2.476 4.72-4.629 9.64-6.383 14.74 10.567-7.96 23.262-13.22 37.047-14.74" fill="#95e313"/><path d="m592.95 2681h-2.336l-8.508 8.72c2.731-1.08 5.231-2.76 7.313-4.98l3.531-3.74" fill="#3f3f3f"/><path d="m479.16 1266.1h-6.836c-13.785 1.52-26.48 6.78-37.047 14.74-3.301 9.62-5.187 19.9-5.187 30.69v1283.7c-9.66 95.9 41.57 95.9 92.676 95.9h52.031c2.523 0 4.996-0.48 7.304-1.4l8.508-8.72h2.336l19.832-21.02h97.344l24.133 24.95c3.828 3.96 9.023 6.19 14.437 6.19l804.92-1.38c31.18 0 56.55-26.25 56.55-58.51v-12.8l-29.87 0.69c-1.73 7.02-7.61 12.34-14.94 12.34l-783.24 0.69-24.129-24.94c-3.828-3.97-9.023-6.19-14.441-6.19h-164.09c-5.504 0-10.765 2.28-14.621 6.37l-23.363 24.76-30.211-0.06c-28.578 0-41.004-14.35-41.004-43.92l0.688-1293.3c0-10.62 3.078-20.47 8.226-28.81" fill="#f2da21"/><path d="m677.6 1826.8h-11.039l0.059 5.26c3.316-2.32 7.016-4.11 10.98-5.26" fill="#95e313"/><path d="m706.83 1826.8h-29.227c-3.964 1.15-7.664 2.94-10.98 5.26l2.551 228.64c0 32.56-0.207 49.13 32.164 49.13l151.72-4.66c5.71 0 11.179-2.32 15.175-6.45l24.242-24.99h101.04l25.05 25.19c3.97 4 9.36 6.25 14.98 6.25l722.54-0.07c5.43 0 10.58-0.99 15.58-2.38v-52.11c-2.3 8.52-10.13 18.37-17.71 18.37l-696.89 0.06-37.14-32.17c-3.98-4-9.37-6.25-14.99-6.25h-145.94c-5.715 0-11.18 2.32-15.172 6.44l-29.875 29.55-90.812 0.01c-8.985 0-16.305-7.36-16.305-16.4l-4e-3 -223.42" fill="#44daf5"/><path d="m710.88 1526.6h-40.266l2.61 233.91c0 32.55-0.207 49.13 32.164 49.13l151.72-4.67c1.911 0 3.79-0.26 5.598-0.75l10.93-11.21h4.004l18.886-19.47h101.04l25.047 25.18c3.98 4 9.37 6.25 14.99 6.25l722.54-0.06c5.43 0 10.58-0.99 15.57-2.38l-0.86-59.87c-2.29 8.51-10.12 18.36-17.69 18.36l-696.9 0.07-37.15-32.18c-3.97-3.99-9.37-6.24-14.99-6.24h-145.93c-5.715 0-11.176 2.31-15.172 6.43l-29.871 29.56h-90.821c-8.984 0-16.301-7.35-16.301-16.4l0.852-215.66" fill="#7dafec"/><path d="m877.64 1793.1h-4.004l-10.93 11.21c3.606-1 6.918-2.94 9.578-5.68l5.356-5.53" fill="#44daf5"/><path d="m980.76 2131.9 22.702 22.69c5.56 5.56 13.25 8.75 21.11 8.75h733.65c4.34 0 7.88 3.52 7.88 7.87v232.7c0 4.33-3.54 7.85-7.88 7.85h-720.89l-23.1-23.08c-5.64-5.62-13.14-8.74-21.117-8.74h-119.48c-7.996 0-15.801 3.29-21.383 9.02l-22.254 22.8h-141.9c-4.332 0-7.864-3.52-7.864-7.85v-232.7c0-4.35 3.532-7.87 7.864-7.87h154.08c8.773 0 16.57-3.29 22.152-9.02l21.875-22.42zm0-308.18 22.702 22.71c5.56 5.56 13.25 8.75 21.11 8.75h739.23c4.33 0 7.87 3.52 7.87 7.85v232.72c0 4.33-3.54 7.85-7.87 7.85h-726.08l-23.49-23.48c-5.64-5.62-13.14-8.75-21.117-8.75h-119.48c-7.996 0-15.801 3.29-21.383 9.02l-22.641 23.21h-141.51c-4.332 0-7.864-3.52-7.864-7.85v-232.72c0-4.33 3.532-7.85 7.864-7.85h154.08c8.8 0 16.605-3.29 22.168-9.05l21.859-22.41zm0-308.96 23.492 23.5c5.64 5.62 13.13 8.75 21.11 8.75h741.61c4.34 0 7.88 3.52 7.88 7.85v232.7c0 4.35-3.54 7.87-7.88 7.87h-729.25l-23.49-23.47c-5.64-5.63-13.14-8.75-21.117-8.75h-119.48c-7.996 0-15.801 3.29-21.383 9.02l-22.641 23.2h-141.51c-4.332 0-7.864-3.52-7.864-7.87v-232.7c0-4.33 3.532-7.85 7.864-7.85h154.08c8.031 0 15.832-3.29 21.394-9.04l22.633-23.21zm-500.2 1167.8c-25.141 0-45.606-20.46-45.606-45.6v-1295.8c0-25.18 20.465-45.67 45.606-45.67l1091.8 1.16c4.21 0 7.89 3.66 7.89 7.87v173.65c0 4.33-3.52 7.85-7.86 7.85h-535.5l-22.7-22.71c-5.64-5.62-13.14-8.75-21.117-8.75h-119.48c-8.028 0-15.828 3.3-21.391 9.05l-21.859 22.41h-180.01c-16.465 0-29.859 13.41-29.859 29.87v926.08c0 16.45 13.394 29.87 29.859 29.87h191.81c4.113 0 8.258-0.94 12.324-2.79 3.621-1.48 7.027-3.75 9.816-6.63l21.887-22.41h94.551l22.702 22.69c2.83 2.81 6.22 5.02 10.07 6.56 3.66 1.64 7.76 2.58 11.83 2.58h547.07c4.19 0 7.86 3.67 7.86 7.87v194.98c0 4.33-3.52 7.85-7.86 7.85h-818.5l-22.703-22.68c-5.563-5.56-13.25-8.75-21.11-8.75h-119.51c-7.996 0-15.8 3.29-21.382 9.02l-21.868 22.41zm0.023-1446.8c-58.098 0-105.35 47.27-105.35 105.34v1295.9c0 58.08 47.254 105.34 105.33 105.34h79.363c8 0 15.801-3.29 21.383-9.02l21.894-22.41h94.551l22.707 22.68c5.633 5.63 13.129 8.75 21.105 8.75h830.86c37.27 0 67.59-30.33 67.59-67.59v-194.98c0-2.72-0.2-5.45-0.6-8.27h118.8c37.28 0 67.61-30.32 67.61-67.59v-232.7c0-11.81-3.13-23.3-9.1-33.57 9.5-11.94 14.66-26.59 14.66-41.89v-232.72c0-12.54-3.52-24.65-10.25-35.37 8.7-11.67 13.43-25.67 13.43-40.1v-232.7c0-37.26-30.32-67.59-67.6-67.59h-127.67c0.48-3.09 0.72-6.09 0.72-9.04v-173.65c0-37.29-30.32-67.61-67.59-67.61l-1091.8-1.17" fill="#282828"/></g></g></svg>
